<?xml version="1.0" encoding="utf-8"?>
<svg id="b098510b-f452-4b85-993b-a1bbfe267c61" data-name="Layer 1" width="1105.04" height="782.74" viewBox="0 0 1105.04 782.74" xmlns="http://www.w3.org/2000/svg">
  <title>medicine</title>
  <path d="M881.39,451v0Z" transform="translate(-47.24 -58.63)" fill="#ffb0b1"/>
  <path d="M 610.117 238.706 L 609.367 238.706 C 579.527 238.706 553.137 254.496 537.957 277.796 C 522.777 254.496 496.387 238.706 466.547 238.706 L 465.797 238.706 C 419.189 239.15 381.632 277.046 381.607 323.656 C 381.607 351.466 393.787 390.926 417.537 423.396 C 462.787 485.266 537.957 539.396 537.957 539.396 C 537.957 539.396 613.127 485.276 658.367 423.396 C 682.127 390.926 694.297 351.466 694.297 323.656 C 694.272 277.05 656.721 239.156 610.117 238.706 Z M 599.387 428.156 C 592.431 428.13 586.206 423.832 583.717 417.336 L 565.877 417.336 C 563.468 417.321 561.335 415.779 560.567 413.496 L 555.087 396.986 L 537.747 457.576 C 537.053 459.972 534.861 461.622 532.367 461.626 L 532.017 461.626 C 529.406 461.5 527.238 459.566 526.817 456.986 L 508.947 349.506 L 495.887 413.106 C 495.271 415.592 493.038 417.338 490.477 417.336 L 465.347 417.336 C 461.047 417.518 458.163 412.978 460.155 409.164 C 461.159 407.243 463.182 406.075 465.347 406.166 L 486.077 406.166 L 504.577 320.656 C 505.585 316.457 510.762 314.925 513.894 317.898 C 514.796 318.754 515.388 319.887 515.577 321.116 L 533.827 430.756 L 549.367 376.546 C 550.031 374.201 552.16 372.574 554.597 372.546 L 554.707 372.546 C 557.117 372.547 559.255 374.096 560.007 376.386 L 569.917 406.196 L 583.497 406.196 C 587.531 393.941 603.318 390.648 611.914 400.269 C 620.511 409.89 615.469 425.209 602.838 427.843 C 601.713 428.078 600.566 428.196 599.417 428.196 Z" fill="#6c63ff"/>
</svg>